<mxfile host="app.diagrams.net" modified="2024-03-06T15:35:13.012Z" agent="Mozilla/5.0 (Windows NT 10.0; Win64; x64; rv:123.0) Gecko/20100101 Firefox/123.0" etag="E7RznHBfXy78eMwwj7YO" version="23.1.6" type="onedrive">
  <diagram id="C5RBs43oDa-KdzZeNtuy" name="Page-1">
    <mxGraphModel grid="1" page="1" gridSize="10" guides="1" tooltips="1" connect="1" arrows="1" fold="1" pageScale="1" pageWidth="827" pageHeight="1169" math="0" shadow="0">
      <root>
        <mxCell id="WIyWlLk6GJQsqaUBKTNV-0" />
        <mxCell id="WIyWlLk6GJQsqaUBKTNV-1" parent="WIyWlLk6GJQsqaUBKTNV-0" />
        <mxCell id="zkfFHV4jXpPFQw0GAbJ--0" value="Pizza" style="swimlane;fontStyle=1;align=center;verticalAlign=top;childLayout=stackLayout;horizontal=1;startSize=26;horizontalStack=0;resizeParent=1;resizeLast=0;collapsible=1;marginBottom=0;rounded=0;shadow=0;strokeWidth=1;" vertex="1" parent="WIyWlLk6GJQsqaUBKTNV-1">
          <mxGeometry x="254.25" y="396" width="207.5" height="134" as="geometry">
            <mxRectangle x="272.5" y="396" width="160" height="26" as="alternateBounds" />
          </mxGeometry>
        </mxCell>
        <mxCell id="zkfFHV4jXpPFQw0GAbJ--2" value="-menuNumber : int" style="text;align=left;verticalAlign=top;spacingLeft=4;spacingRight=4;overflow=hidden;rotatable=0;points=[[0,0.5],[1,0.5]];portConstraint=eastwest;rounded=0;shadow=0;html=0;" vertex="1" parent="zkfFHV4jXpPFQw0GAbJ--0">
          <mxGeometry y="26" width="207.5" height="26" as="geometry" />
        </mxCell>
        <mxCell id="Y4Mlw6V3T0fHXm6pCBUP-14" value="-pizzaTopping : Topping[]" style="text;align=left;verticalAlign=top;spacingLeft=4;spacingRight=4;overflow=hidden;rotatable=0;points=[[0,0.5],[1,0.5]];portConstraint=eastwest;rounded=0;shadow=0;html=0;" vertex="1" parent="zkfFHV4jXpPFQw0GAbJ--0">
          <mxGeometry y="52" width="207.5" height="26" as="geometry" />
        </mxCell>
        <mxCell id="3E91q7KCQqw1B5RSnsSS-9" value="" style="endArrow=none;html=1;rounded=0;exitX=0;exitY=0.75;exitDx=0;exitDy=0;entryX=0.99;entryY=1;entryDx=0;entryDy=0;entryPerimeter=0;" edge="1" parent="zkfFHV4jXpPFQw0GAbJ--0" target="Y4Mlw6V3T0fHXm6pCBUP-14">
          <mxGeometry width="50" height="50" relative="1" as="geometry">
            <mxPoint y="77" as="sourcePoint" />
            <mxPoint x="171" y="77" as="targetPoint" />
          </mxGeometry>
        </mxCell>
        <mxCell id="OsXOoOWW8Zhuk0V6LVkI-3" value="+AddTopping(Topping topping)" style="text;align=left;verticalAlign=top;spacingLeft=4;spacingRight=4;overflow=hidden;rotatable=0;points=[[0,0.5],[1,0.5]];portConstraint=eastwest;rounded=0;shadow=0;html=0;" vertex="1" parent="zkfFHV4jXpPFQw0GAbJ--0">
          <mxGeometry y="78" width="207.5" height="26" as="geometry" />
        </mxCell>
        <mxCell id="OsXOoOWW8Zhuk0V6LVkI-4" value="+RemoveTopping(Topping topping)" style="text;align=left;verticalAlign=top;spacingLeft=4;spacingRight=4;overflow=hidden;rotatable=0;points=[[0,0.5],[1,0.5]];portConstraint=eastwest;rounded=0;shadow=0;html=0;" vertex="1" parent="zkfFHV4jXpPFQw0GAbJ--0">
          <mxGeometry y="104" width="207.5" height="26" as="geometry" />
        </mxCell>
        <mxCell id="zkfFHV4jXpPFQw0GAbJ--17" value="Basket" style="swimlane;fontStyle=1;align=center;verticalAlign=top;childLayout=stackLayout;horizontal=1;startSize=26;horizontalStack=0;resizeParent=1;resizeLast=0;collapsible=1;marginBottom=0;rounded=0;shadow=0;strokeWidth=1;" vertex="1" parent="WIyWlLk6GJQsqaUBKTNV-1">
          <mxGeometry x="572.5" y="450" width="160" height="182" as="geometry">
            <mxRectangle x="550" y="140" width="160" height="26" as="alternateBounds" />
          </mxGeometry>
        </mxCell>
        <mxCell id="zkfFHV4jXpPFQw0GAbJ--18" value="-items : Item[]" style="text;align=left;verticalAlign=top;spacingLeft=4;spacingRight=4;overflow=hidden;rotatable=0;points=[[0,0.5],[1,0.5]];portConstraint=eastwest;" vertex="1" parent="zkfFHV4jXpPFQw0GAbJ--17">
          <mxGeometry y="26" width="160" height="26" as="geometry" />
        </mxCell>
        <mxCell id="zkfFHV4jXpPFQw0GAbJ--19" value="-totalPrice : decimal" style="text;align=left;verticalAlign=top;spacingLeft=4;spacingRight=4;overflow=hidden;rotatable=0;points=[[0,0.5],[1,0.5]];portConstraint=eastwest;rounded=0;shadow=0;html=0;" vertex="1" parent="zkfFHV4jXpPFQw0GAbJ--17">
          <mxGeometry y="52" width="160" height="26" as="geometry" />
        </mxCell>
        <mxCell id="zkfFHV4jXpPFQw0GAbJ--20" value="-itemQuantity : int" style="text;align=left;verticalAlign=top;spacingLeft=4;spacingRight=4;overflow=hidden;rotatable=0;points=[[0,0.5],[1,0.5]];portConstraint=eastwest;rounded=0;shadow=0;html=0;" vertex="1" parent="zkfFHV4jXpPFQw0GAbJ--17">
          <mxGeometry y="78" width="160" height="26" as="geometry" />
        </mxCell>
        <mxCell id="3E91q7KCQqw1B5RSnsSS-19" value="" style="endArrow=none;html=1;rounded=0;exitX=0;exitY=0.75;exitDx=0;exitDy=0;entryX=1;entryY=0.75;entryDx=0;entryDy=0;" edge="1" parent="zkfFHV4jXpPFQw0GAbJ--17">
          <mxGeometry width="50" height="50" relative="1" as="geometry">
            <mxPoint y="104" as="sourcePoint" />
            <mxPoint x="160" y="104" as="targetPoint" />
          </mxGeometry>
        </mxCell>
        <mxCell id="3E91q7KCQqw1B5RSnsSS-28" value="+AddItem(Item item)" style="text;align=left;verticalAlign=top;spacingLeft=4;spacingRight=4;overflow=hidden;rotatable=0;points=[[0,0.5],[1,0.5]];portConstraint=eastwest;rounded=0;shadow=0;html=0;" vertex="1" parent="zkfFHV4jXpPFQw0GAbJ--17">
          <mxGeometry y="104" width="160" height="26" as="geometry" />
        </mxCell>
        <mxCell id="OsXOoOWW8Zhuk0V6LVkI-5" value="+RemoveItem(Item item)" style="text;align=left;verticalAlign=top;spacingLeft=4;spacingRight=4;overflow=hidden;rotatable=0;points=[[0,0.5],[1,0.5]];portConstraint=eastwest;rounded=0;shadow=0;html=0;" vertex="1" parent="zkfFHV4jXpPFQw0GAbJ--17">
          <mxGeometry y="130" width="160" height="26" as="geometry" />
        </mxCell>
        <mxCell id="OsXOoOWW8Zhuk0V6LVkI-6" value="+GetTotalPrice()" style="text;align=left;verticalAlign=top;spacingLeft=4;spacingRight=4;overflow=hidden;rotatable=0;points=[[0,0.5],[1,0.5]];portConstraint=eastwest;rounded=0;shadow=0;html=0;" vertex="1" parent="zkfFHV4jXpPFQw0GAbJ--17">
          <mxGeometry y="156" width="160" height="26" as="geometry" />
        </mxCell>
        <mxCell id="Y4Mlw6V3T0fHXm6pCBUP-2" value="Item" style="swimlane;fontStyle=1;align=center;verticalAlign=top;childLayout=stackLayout;horizontal=1;startSize=26;horizontalStack=0;resizeParent=1;resizeLast=0;collapsible=1;marginBottom=0;rounded=0;shadow=0;strokeWidth=1;" vertex="1" parent="WIyWlLk6GJQsqaUBKTNV-1">
          <mxGeometry x="278" y="240" width="160" height="104" as="geometry">
            <mxRectangle x="230" y="140" width="160" height="26" as="alternateBounds" />
          </mxGeometry>
        </mxCell>
        <mxCell id="Y4Mlw6V3T0fHXm6pCBUP-6" value="-name : string" style="text;align=left;verticalAlign=top;spacingLeft=4;spacingRight=4;overflow=hidden;rotatable=0;points=[[0,0.5],[1,0.5]];portConstraint=eastwest;rounded=0;shadow=0;html=0;" vertex="1" parent="Y4Mlw6V3T0fHXm6pCBUP-2">
          <mxGeometry y="26" width="160" height="26" as="geometry" />
        </mxCell>
        <mxCell id="Y4Mlw6V3T0fHXm6pCBUP-46" value="-price : int" style="text;align=left;verticalAlign=top;spacingLeft=4;spacingRight=4;overflow=hidden;rotatable=0;points=[[0,0.5],[1,0.5]];portConstraint=eastwest;rounded=0;shadow=0;html=0;" vertex="1" parent="Y4Mlw6V3T0fHXm6pCBUP-2">
          <mxGeometry y="52" width="160" height="26" as="geometry" />
        </mxCell>
        <mxCell id="2shv_5NdHwwAfTqiFB7D-0" value="-AddPrice(decimal price)" style="text;align=left;verticalAlign=top;spacingLeft=4;spacingRight=4;overflow=hidden;rotatable=0;points=[[0,0.5],[1,0.5]];portConstraint=eastwest;rounded=0;shadow=0;html=0;" vertex="1" parent="Y4Mlw6V3T0fHXm6pCBUP-2">
          <mxGeometry y="78" width="160" height="26" as="geometry" />
        </mxCell>
        <mxCell id="Y4Mlw6V3T0fHXm6pCBUP-7" value="" style="endArrow=block;endSize=10;endFill=0;shadow=0;strokeWidth=1;rounded=0;edgeStyle=elbowEdgeStyle;elbow=vertical;exitX=0.5;exitY=0;exitDx=0;exitDy=0;entryX=0.5;entryY=1;entryDx=0;entryDy=0;" edge="1" parent="WIyWlLk6GJQsqaUBKTNV-1" source="zkfFHV4jXpPFQw0GAbJ--0" target="Y4Mlw6V3T0fHXm6pCBUP-2">
          <mxGeometry width="160" relative="1" as="geometry">
            <mxPoint x="523" y="370" as="sourcePoint" />
            <mxPoint x="358" y="310" as="targetPoint" />
          </mxGeometry>
        </mxCell>
        <mxCell id="Y4Mlw6V3T0fHXm6pCBUP-9" value="Topping" style="swimlane;fontStyle=1;align=center;verticalAlign=top;childLayout=stackLayout;horizontal=1;startSize=26;horizontalStack=0;resizeParent=1;resizeLast=0;collapsible=1;marginBottom=0;rounded=0;shadow=0;strokeWidth=1;" vertex="1" parent="WIyWlLk6GJQsqaUBKTNV-1">
          <mxGeometry x="69" y="396" width="160" height="78" as="geometry">
            <mxRectangle x="230" y="140" width="160" height="26" as="alternateBounds" />
          </mxGeometry>
        </mxCell>
        <mxCell id="3E91q7KCQqw1B5RSnsSS-10" value="" style="endArrow=none;html=1;rounded=0;exitX=0;exitY=0.75;exitDx=0;exitDy=0;entryX=1;entryY=0.75;entryDx=0;entryDy=0;" edge="1" parent="Y4Mlw6V3T0fHXm6pCBUP-9">
          <mxGeometry width="50" height="50" relative="1" as="geometry">
            <mxPoint y="54" as="sourcePoint" />
            <mxPoint x="160" y="54" as="targetPoint" />
          </mxGeometry>
        </mxCell>
        <mxCell id="Y4Mlw6V3T0fHXm6pCBUP-36" value="Customer" style="swimlane;fontStyle=1;align=center;verticalAlign=top;childLayout=stackLayout;horizontal=1;startSize=26;horizontalStack=0;resizeParent=1;resizeLast=0;collapsible=1;marginBottom=0;rounded=0;shadow=0;strokeWidth=1;" vertex="1" parent="WIyWlLk6GJQsqaUBKTNV-1">
          <mxGeometry x="566" y="290" width="173" height="110" as="geometry">
            <mxRectangle x="230" y="140" width="160" height="26" as="alternateBounds" />
          </mxGeometry>
        </mxCell>
        <mxCell id="Y4Mlw6V3T0fHXm6pCBUP-37" value="-customerName : string" style="text;align=left;verticalAlign=top;spacingLeft=4;spacingRight=4;overflow=hidden;rotatable=0;points=[[0,0.5],[1,0.5]];portConstraint=eastwest;" vertex="1" parent="Y4Mlw6V3T0fHXm6pCBUP-36">
          <mxGeometry y="26" width="173" height="26" as="geometry" />
        </mxCell>
        <mxCell id="Y4Mlw6V3T0fHXm6pCBUP-84" value="-customerbasket : Basket" style="text;align=left;verticalAlign=top;spacingLeft=4;spacingRight=4;overflow=hidden;rotatable=0;points=[[0,0.5],[1,0.5]];portConstraint=eastwest;" vertex="1" parent="Y4Mlw6V3T0fHXm6pCBUP-36">
          <mxGeometry y="52" width="173" height="26" as="geometry" />
        </mxCell>
        <mxCell id="Y4Mlw6V3T0fHXm6pCBUP-76" value="" style="resizable=0;align=right;verticalAlign=bottom;labelBackgroundColor=none;fontSize=12;" connectable="0" vertex="1" parent="WIyWlLk6GJQsqaUBKTNV-1">
          <mxGeometry x="558" y="536" as="geometry" />
        </mxCell>
        <mxCell id="1DgYhpsRyeeTAO4r7rxe-2" value="" style="endArrow=none;html=1;rounded=0;exitX=0;exitY=0.75;exitDx=0;exitDy=0;entryX=1;entryY=0.75;entryDx=0;entryDy=0;" edge="1" parent="WIyWlLk6GJQsqaUBKTNV-1" source="Y4Mlw6V3T0fHXm6pCBUP-2" target="Y4Mlw6V3T0fHXm6pCBUP-2">
          <mxGeometry width="50" height="50" relative="1" as="geometry">
            <mxPoint x="398" y="360" as="sourcePoint" />
            <mxPoint x="448" y="310" as="targetPoint" />
          </mxGeometry>
        </mxCell>
        <mxCell id="1DgYhpsRyeeTAO4r7rxe-4" value="" style="endArrow=none;html=1;rounded=0;exitX=0.5;exitY=0;exitDx=0;exitDy=0;" edge="1" parent="WIyWlLk6GJQsqaUBKTNV-1" source="Y4Mlw6V3T0fHXm6pCBUP-9">
          <mxGeometry width="50" height="50" relative="1" as="geometry">
            <mxPoint x="168" y="371" as="sourcePoint" />
            <mxPoint x="358" y="370" as="targetPoint" />
            <Array as="points">
              <mxPoint x="149" y="370" />
            </Array>
          </mxGeometry>
        </mxCell>
        <mxCell id="3E91q7KCQqw1B5RSnsSS-7" value="1" style="endArrow=open;html=1;endSize=12;startArrow=diamondThin;startSize=14;startFill=1;edgeStyle=orthogonalEdgeStyle;align=left;verticalAlign=bottom;rounded=0;entryX=0.5;entryY=0;entryDx=0;entryDy=0;exitX=0.5;exitY=1;exitDx=0;exitDy=0;" edge="1" parent="WIyWlLk6GJQsqaUBKTNV-1" source="Y4Mlw6V3T0fHXm6pCBUP-36" target="zkfFHV4jXpPFQw0GAbJ--17">
          <mxGeometry x="1" y="8" relative="1" as="geometry">
            <mxPoint x="658" y="340" as="sourcePoint" />
            <mxPoint x="498" y="340" as="targetPoint" />
            <mxPoint as="offset" />
          </mxGeometry>
        </mxCell>
        <mxCell id="3E91q7KCQqw1B5RSnsSS-8" value="1" style="endArrow=open;html=1;endSize=12;startArrow=diamondThin;startSize=14;startFill=0;edgeStyle=orthogonalEdgeStyle;align=left;verticalAlign=bottom;rounded=0;exitX=0;exitY=0.5;exitDx=0;exitDy=0;entryX=1;entryY=0.5;entryDx=0;entryDy=0;" edge="1" parent="WIyWlLk6GJQsqaUBKTNV-1" source="zkfFHV4jXpPFQw0GAbJ--18" target="Y4Mlw6V3T0fHXm6pCBUP-46">
          <mxGeometry x="-0.8779" y="-9" relative="1" as="geometry">
            <mxPoint x="478" y="80.5" as="sourcePoint" />
            <mxPoint x="606" y="80" as="targetPoint" />
            <mxPoint as="offset" />
          </mxGeometry>
        </mxCell>
        <mxCell id="3E91q7KCQqw1B5RSnsSS-27" value="1" style="endArrow=open;html=1;endSize=12;startArrow=diamondThin;startSize=14;startFill=1;edgeStyle=orthogonalEdgeStyle;align=left;verticalAlign=bottom;rounded=0;entryX=0.5;entryY=1;entryDx=0;entryDy=0;exitX=0.5;exitY=1;exitDx=0;exitDy=0;" edge="1" parent="WIyWlLk6GJQsqaUBKTNV-1" source="zkfFHV4jXpPFQw0GAbJ--0" target="Y4Mlw6V3T0fHXm6pCBUP-9">
          <mxGeometry x="-0.8841" y="12" relative="1" as="geometry">
            <mxPoint x="290" y="630" as="sourcePoint" />
            <mxPoint x="239" y="600" as="targetPoint" />
            <Array as="points">
              <mxPoint x="358" y="570" />
              <mxPoint x="149" y="570" />
            </Array>
            <mxPoint as="offset" />
          </mxGeometry>
        </mxCell>
        <mxCell id="3E91q7KCQqw1B5RSnsSS-33" value="1" style="endArrow=open;html=1;endSize=12;startArrow=diamondThin;startSize=14;startFill=1;edgeStyle=orthogonalEdgeStyle;align=left;verticalAlign=bottom;rounded=0;exitX=1;exitY=0.5;exitDx=0;exitDy=0;entryX=1;entryY=0.5;entryDx=0;entryDy=0;" edge="1" parent="WIyWlLk6GJQsqaUBKTNV-1" source="Y4Mlw6V3T0fHXm6pCBUP-84" target="2shv_5NdHwwAfTqiFB7D-47">
          <mxGeometry x="-0.9524" y="5" relative="1" as="geometry">
            <mxPoint x="779" y="674" as="sourcePoint" />
            <mxPoint x="760" y="780" as="targetPoint" />
            <Array as="points">
              <mxPoint x="790" y="355" />
              <mxPoint x="790" y="745" />
            </Array>
            <mxPoint as="offset" />
          </mxGeometry>
        </mxCell>
        <mxCell id="3E91q7KCQqw1B5RSnsSS-46" value="1..*" style="resizable=0;align=left;verticalAlign=bottom;labelBackgroundColor=none;fontSize=11;direction=west;" connectable="0" vertex="1" parent="WIyWlLk6GJQsqaUBKTNV-1">
          <mxGeometry x="443.5" y="292" as="geometry" />
        </mxCell>
        <mxCell id="3E91q7KCQqw1B5RSnsSS-47" value="0..*" style="resizable=0;align=left;verticalAlign=bottom;labelBackgroundColor=none;fontSize=11;direction=west;" connectable="0" vertex="1" parent="WIyWlLk6GJQsqaUBKTNV-1">
          <mxGeometry x="160" y="500" as="geometry" />
        </mxCell>
        <mxCell id="3E91q7KCQqw1B5RSnsSS-48" value="1" style="resizable=0;align=left;verticalAlign=bottom;labelBackgroundColor=none;fontSize=11;direction=west;" connectable="0" vertex="1" parent="WIyWlLk6GJQsqaUBKTNV-1">
          <mxGeometry x="660" y="420" as="geometry">
            <mxPoint y="-4" as="offset" />
          </mxGeometry>
        </mxCell>
        <mxCell id="3E91q7KCQqw1B5RSnsSS-49" value="1..*" style="resizable=0;align=left;verticalAlign=bottom;labelBackgroundColor=none;fontSize=11;direction=west;" connectable="0" vertex="1" parent="WIyWlLk6GJQsqaUBKTNV-1">
          <mxGeometry x="660" y="290" as="geometry" />
        </mxCell>
        <mxCell id="3E91q7KCQqw1B5RSnsSS-52" value="1..*" style="resizable=0;align=left;verticalAlign=bottom;labelBackgroundColor=none;fontSize=11;direction=west;" connectable="0" vertex="1" parent="WIyWlLk6GJQsqaUBKTNV-1">
          <mxGeometry x="760.31" y="720" as="geometry">
            <mxPoint x="5" y="18" as="offset" />
          </mxGeometry>
        </mxCell>
        <mxCell id="3E91q7KCQqw1B5RSnsSS-61" value="1" style="endArrow=open;html=1;endSize=12;startArrow=diamondThin;startSize=14;startFill=0;edgeStyle=orthogonalEdgeStyle;align=left;verticalAlign=bottom;rounded=0;exitX=0.497;exitY=0.962;exitDx=0;exitDy=0;entryX=0.5;entryY=0;entryDx=0;entryDy=0;exitPerimeter=0;" edge="1" parent="WIyWlLk6GJQsqaUBKTNV-1" source="2shv_5NdHwwAfTqiFB7D-28" target="Y4Mlw6V3T0fHXm6pCBUP-36">
          <mxGeometry x="-0.2329" y="8" relative="1" as="geometry">
            <mxPoint x="652.5" y="160" as="sourcePoint" />
            <mxPoint x="920" y="230" as="targetPoint" />
            <mxPoint as="offset" />
          </mxGeometry>
        </mxCell>
        <mxCell id="3E91q7KCQqw1B5RSnsSS-20" value="" style="endArrow=none;html=1;rounded=0;entryX=1;entryY=0.75;entryDx=0;entryDy=0;exitX=0;exitY=0.75;exitDx=0;exitDy=0;" edge="1" parent="WIyWlLk6GJQsqaUBKTNV-1" source="Y4Mlw6V3T0fHXm6pCBUP-36" target="Y4Mlw6V3T0fHXm6pCBUP-36">
          <mxGeometry width="50" height="50" relative="1" as="geometry">
            <mxPoint x="570" y="320" as="sourcePoint" />
            <mxPoint x="739" y="343" as="targetPoint" />
          </mxGeometry>
        </mxCell>
        <mxCell id="2shv_5NdHwwAfTqiFB7D-25" value="LocalStorage" style="swimlane;fontStyle=1;align=center;verticalAlign=top;childLayout=stackLayout;horizontal=1;startSize=26;horizontalStack=0;resizeParent=1;resizeParentMax=0;resizeLast=0;collapsible=1;marginBottom=0;whiteSpace=wrap;html=1;" vertex="1" parent="WIyWlLk6GJQsqaUBKTNV-1">
          <mxGeometry x="572.5" y="130" width="160" height="112" as="geometry" />
        </mxCell>
        <mxCell id="2shv_5NdHwwAfTqiFB7D-26" value="-orders : Order[]" style="text;strokeColor=none;fillColor=none;align=left;verticalAlign=top;spacingLeft=4;spacingRight=4;overflow=hidden;rotatable=0;points=[[0,0.5],[1,0.5]];portConstraint=eastwest;whiteSpace=wrap;html=1;" vertex="1" parent="2shv_5NdHwwAfTqiFB7D-25">
          <mxGeometry y="26" width="160" height="26" as="geometry" />
        </mxCell>
        <mxCell id="2shv_5NdHwwAfTqiFB7D-31" value="-orderQuantity : int" style="text;strokeColor=none;fillColor=none;align=left;verticalAlign=top;spacingLeft=4;spacingRight=4;overflow=hidden;rotatable=0;points=[[0,0.5],[1,0.5]];portConstraint=eastwest;whiteSpace=wrap;html=1;" vertex="1" parent="2shv_5NdHwwAfTqiFB7D-25">
          <mxGeometry y="52" width="160" height="26" as="geometry" />
        </mxCell>
        <mxCell id="2shv_5NdHwwAfTqiFB7D-27" value="" style="line;strokeWidth=1;fillColor=none;align=left;verticalAlign=middle;spacingTop=-1;spacingLeft=3;spacingRight=3;rotatable=0;labelPosition=right;points=[];portConstraint=eastwest;strokeColor=inherit;" vertex="1" parent="2shv_5NdHwwAfTqiFB7D-25">
          <mxGeometry y="78" width="160" height="8" as="geometry" />
        </mxCell>
        <mxCell id="2shv_5NdHwwAfTqiFB7D-28" value="+ExportCSV(Order[] orders)" style="text;strokeColor=none;fillColor=none;align=left;verticalAlign=top;spacingLeft=4;spacingRight=4;overflow=hidden;rotatable=0;points=[[0,0.5],[1,0.5]];portConstraint=eastwest;whiteSpace=wrap;html=1;" vertex="1" parent="2shv_5NdHwwAfTqiFB7D-25">
          <mxGeometry y="86" width="160" height="26" as="geometry" />
        </mxCell>
        <mxCell id="2shv_5NdHwwAfTqiFB7D-43" value="Order" style="swimlane;fontStyle=1;align=center;verticalAlign=top;childLayout=stackLayout;horizontal=1;startSize=26;horizontalStack=0;resizeParent=1;resizeParentMax=0;resizeLast=0;collapsible=1;marginBottom=0;whiteSpace=wrap;html=1;" vertex="1" parent="WIyWlLk6GJQsqaUBKTNV-1">
          <mxGeometry x="544.6899999999999" y="680" width="215.62" height="242" as="geometry" />
        </mxCell>
        <mxCell id="2shv_5NdHwwAfTqiFB7D-44" value="-orderNumber : int" style="text;strokeColor=none;fillColor=none;align=left;verticalAlign=top;spacingLeft=4;spacingRight=4;overflow=hidden;rotatable=0;points=[[0,0.5],[1,0.5]];portConstraint=eastwest;whiteSpace=wrap;html=1;" vertex="1" parent="2shv_5NdHwwAfTqiFB7D-43">
          <mxGeometry y="26" width="215.62" height="26" as="geometry" />
        </mxCell>
        <mxCell id="2shv_5NdHwwAfTqiFB7D-47" value="-customer : Customer" style="text;strokeColor=none;fillColor=none;align=left;verticalAlign=top;spacingLeft=4;spacingRight=4;overflow=hidden;rotatable=0;points=[[0,0.5],[1,0.5]];portConstraint=eastwest;whiteSpace=wrap;html=1;" vertex="1" parent="2shv_5NdHwwAfTqiFB7D-43">
          <mxGeometry y="52" width="215.62" height="26" as="geometry" />
        </mxCell>
        <mxCell id="2shv_5NdHwwAfTqiFB7D-48" value="-timeOrderPlaced : DateTime" style="text;strokeColor=none;fillColor=none;align=left;verticalAlign=top;spacingLeft=4;spacingRight=4;overflow=hidden;rotatable=0;points=[[0,0.5],[1,0.5]];portConstraint=eastwest;whiteSpace=wrap;html=1;" vertex="1" parent="2shv_5NdHwwAfTqiFB7D-43">
          <mxGeometry y="78" width="215.62" height="26" as="geometry" />
        </mxCell>
        <mxCell id="2shv_5NdHwwAfTqiFB7D-49" value="-isOrderCompleted : bool" style="text;strokeColor=none;fillColor=none;align=left;verticalAlign=top;spacingLeft=4;spacingRight=4;overflow=hidden;rotatable=0;points=[[0,0.5],[1,0.5]];portConstraint=eastwest;whiteSpace=wrap;html=1;" vertex="1" parent="2shv_5NdHwwAfTqiFB7D-43">
          <mxGeometry y="104" width="215.62" height="26" as="geometry" />
        </mxCell>
        <mxCell id="2shv_5NdHwwAfTqiFB7D-50" value="-totalPrice : decimal" style="text;strokeColor=none;fillColor=none;align=left;verticalAlign=top;spacingLeft=4;spacingRight=4;overflow=hidden;rotatable=0;points=[[0,0.5],[1,0.5]];portConstraint=eastwest;whiteSpace=wrap;html=1;" vertex="1" parent="2shv_5NdHwwAfTqiFB7D-43">
          <mxGeometry y="130" width="215.62" height="26" as="geometry" />
        </mxCell>
        <mxCell id="2shv_5NdHwwAfTqiFB7D-45" value="" style="line;strokeWidth=1;fillColor=none;align=left;verticalAlign=middle;spacingTop=-1;spacingLeft=3;spacingRight=3;rotatable=0;labelPosition=right;points=[];portConstraint=eastwest;strokeColor=inherit;" vertex="1" parent="2shv_5NdHwwAfTqiFB7D-43">
          <mxGeometry y="156" width="215.62" height="8" as="geometry" />
        </mxCell>
        <mxCell id="2shv_5NdHwwAfTqiFB7D-46" value="+GetMinutesSinceOrderPlaced()" style="text;strokeColor=none;fillColor=none;align=left;verticalAlign=top;spacingLeft=4;spacingRight=4;overflow=hidden;rotatable=0;points=[[0,0.5],[1,0.5]];portConstraint=eastwest;whiteSpace=wrap;html=1;" vertex="1" parent="2shv_5NdHwwAfTqiFB7D-43">
          <mxGeometry y="164" width="215.62" height="26" as="geometry" />
        </mxCell>
        <mxCell id="2shv_5NdHwwAfTqiFB7D-51" value="+CalculateTaxOfItems(decimal price)" style="text;strokeColor=none;fillColor=none;align=left;verticalAlign=top;spacingLeft=4;spacingRight=4;overflow=hidden;rotatable=0;points=[[0,0.5],[1,0.5]];portConstraint=eastwest;whiteSpace=wrap;html=1;" vertex="1" parent="2shv_5NdHwwAfTqiFB7D-43">
          <mxGeometry y="190" width="215.62" height="26" as="geometry" />
        </mxCell>
        <mxCell id="2shv_5NdHwwAfTqiFB7D-52" value="+CalculateTotalPrice()" style="text;strokeColor=none;fillColor=none;align=left;verticalAlign=top;spacingLeft=4;spacingRight=4;overflow=hidden;rotatable=0;points=[[0,0.5],[1,0.5]];portConstraint=eastwest;whiteSpace=wrap;html=1;" vertex="1" parent="2shv_5NdHwwAfTqiFB7D-43">
          <mxGeometry y="216" width="215.62" height="26" as="geometry" />
        </mxCell>
        <mxCell id="2shv_5NdHwwAfTqiFB7D-53" value="1" style="endArrow=open;html=1;endSize=12;startArrow=diamondThin;startSize=14;startFill=1;edgeStyle=orthogonalEdgeStyle;align=left;verticalAlign=bottom;rounded=0;exitX=0.5;exitY=1;exitDx=0;exitDy=0;entryX=0.5;entryY=0;entryDx=0;entryDy=0;" edge="1" parent="WIyWlLk6GJQsqaUBKTNV-1" source="zkfFHV4jXpPFQw0GAbJ--17" target="2shv_5NdHwwAfTqiFB7D-43">
          <mxGeometry x="-0.0526" y="8" relative="1" as="geometry">
            <mxPoint x="691.5" y="646" as="sourcePoint" />
            <mxPoint x="691.5" y="684" as="targetPoint" />
            <Array as="points">
              <mxPoint x="653" y="670" />
              <mxPoint x="653" y="670" />
            </Array>
            <mxPoint as="offset" />
          </mxGeometry>
        </mxCell>
        <mxCell id="2shv_5NdHwwAfTqiFB7D-54" value="1" style="resizable=0;align=left;verticalAlign=bottom;labelBackgroundColor=none;fontSize=11;direction=west;" connectable="0" vertex="1" parent="WIyWlLk6GJQsqaUBKTNV-1">
          <mxGeometry x="660" y="680" as="geometry" />
        </mxCell>
      </root>
    </mxGraphModel>
  </diagram>
</mxfile>
